Genre:Comedy | Drama | Romance | Music



Brassed Off - (Pete Postlethwaite - Ewan McGregor)(1996)[DivX-ENG/SPAN]



Starring

Pete Postlethwaite ... Danny
Tara Fitzgerald ... Gloria
Ewan McGregor ... Andy
Stephen Tompkinson ... Phil
Jim Carter ... Harry
Philip Jackson ... Jim
Peter Martin ... Ernie
Sue Johnston ... Vera
Mary Healey ... Ida
Melanie Hill ... Sandra
Lill Roughley ... Rita
Peter Gunn ... Simmo
Stephen Moore ... McKenzie
Kenneth Colley ... Greasley (as Ken Colley)
Olga Grahame ... Mrs. Foggan

General
Complete name : Brassed Off.divX
Format : DivX
Format/Info : Hack of AVI
File size : 1 016 MiB
Duration : 1h 43mn
Overall bit rate : 1 376 Kbps

Video
ID : 0
Format : MPEG-4 Visual
Format settings, BVOP : Yes
Format settings, QPel : No
Format settings, GMC : No warppoints
Format settings, Matrix : Default (H.263)
Muxing mode : Packed bitstream
Codec ID : DX50
Codec ID/Hint : DivX 5
Duration : 1h 43mn
Bit rate : 1 101 Kbps
Width : 688 pixels
Height : 352 pixels
Display aspect ratio : 1.955
Frame rate : 25.000 fps
Resolution : 24 bits
Colorimetry : 4:2:0
Scan type : Progressive
Bits/(Pixel*Frame) : 0.182
Stream size : 812 MiB (80%)
Title : Video
Writing library : DivX 6.8.2 (UTC 2008-05-17)

Audio #1 English
ID : 1
Format : MPEG Audio
Format version : Version 1
Format profile : Layer 3
Codec ID : 55
Codec ID/Hint : MP3
Duration : 1h 43mn
Bit rate mode : Constant
Bit rate : 128 Kbps
Channel(s) : 2 channels
Sampling rate : 48.0 KHz
Resolution : 16 bits
Stream size : 94.5 MiB (9%)
Alignment : Split accross interleaves
Interleave, duration : 40 ms (1.00 video frame)
Interleave, preload duration : 500 ms
Title : Audio
Writing library : LAME3.92

Audio #2 Spanish
ID : 2
Format : MPEG Audio
Format version : Version 1
Format profile : Layer 3
Codec ID : 55
Codec ID/Hint : MP3
Duration : 1h 43mn
Bit rate mode : Constant
Bit rate : 128 Kbps
Channel(s) : 2 channels
Sampling rate : 48.0 KHz
Resolution : 16 bits
Stream size : 94.5 MiB (9%)
Alignment : Split accross interleaves
Interleave, duration : 40 ms (1.00 video frame)
Interleave, preload duration : 500 ms
Title : Audio

Text #1 English
Format : DivX Subtitle
Codec ID : DXSB
Codec ID/Info : Subtitle in AVI from DivX networks
Width : 640 pixels
Height : 480 pixels
Resolution : 4 bits
Stream size : 2.02 MiB (0%)
Title : Subtitle

Text #2 Spanish
Format : DivX Subtitle
Codec ID : DXSB
Codec ID/Info : Subtitle in AVI from DivX networks
Width : 640 pixels
Height : 480 pixels
Resolution : 4 bits
Stream size : 1.77 MiB (0%)
Title : Subtitle


IMDB Rating =

7.1/10 - 8,671 votes
 
http://www.imdb.com/title/tt0115744/


Plot

A small Yorkshire mining town is threatened with being shut down and the only hope for the town's men is to enter their Grimley Colliery Brass Band into a national competition. They believe they have no hope until Gloria appears carrying her Flugelhorn. At first mocked for being a woman, she soon becomes the only chance for the band to win. In joining the band she puts her relationship with her childhood sweetheart Andy on the line.